<svg width="95" height="40" viewBox="0 0 95 40" fill="none" xmlns="http://www.w3.org/2000/svg">
<path d="M16.6042 12.6092C15.2648 10.5005 12.598 9.30237 9.84066 9.30237C4.15106 9.30237 0 13.7654 0 19.7979C0 25.9981 4.30793 30.3233 9.69586 30.3233C11.0637 30.3427 12.4144 30.0184 13.6222 29.3805C14.83 28.7427 15.8558 27.812 16.6042 26.6751V29.7962H21.6V9.82954H16.6042V12.6092ZM10.7397 25.7046C9.97172 25.6945 9.21343 25.5332 8.50872 25.2301C7.80402 24.9269 7.16692 24.4879 6.63434 23.9385C6.10176 23.3891 5.68429 22.7402 5.40613 22.0295C5.12796 21.3187 4.99462 20.5602 5.01385 19.7979C4.99462 19.0411 5.12686 18.288 5.4029 17.5823C5.67895 16.8767 6.09331 16.2324 6.62197 15.6869C7.15062 15.1414 7.78307 14.7055 8.48265 14.4044C9.18223 14.1034 9.93503 13.9432 10.6974 13.9331C12.2373 13.9761 13.6998 14.6123 14.7756 15.707C15.8514 16.8017 16.456 18.2691 16.4615 19.7985C16.467 21.328 15.8729 22.7996 14.805 23.9019C13.7371 25.0042 12.2791 25.6507 10.7397 25.7046Z" fill="#77E0FF"/>
<path d="M36.726 23.5182L31.3864 9.82969H25.9984L34.4031 29.8083H38.9705L47.4596 9.82969H42.0295L36.726 23.5182Z" fill="#77E0FF"/>
<path d="M60.6429 9.30237C54.8688 9.30237 50.0842 13.4119 50.0842 19.7859C50.0842 26.0341 54.6576 30.3114 60.6429 30.3114C64.3052 30.3114 67.8831 28.6819 69.7354 25.7765L66.3687 23.2604C65.7291 24.0806 64.9046 24.7404 63.9615 25.1868C63.0184 25.6331 61.983 25.8535 60.9385 25.8304C57.9218 25.8304 55.7678 24.3328 55.2067 21.5531H70.8093C70.8516 20.8223 70.8938 20.1813 70.8938 19.6241C70.8998 13.382 66.3687 9.30237 60.6429 9.30237ZM55.2127 18.0726C55.8161 15.0354 58.0183 13.7114 60.6851 13.7114C63.4907 13.7114 65.6447 15.3349 65.9463 18.0726H55.2127Z" fill="#77E0FF"/>
<path d="M89.296 9.82969L84.0831 22.8772L78.8279 9.82969H73.5667L81.374 28.6521L80.2096 31.5635C79.2201 33.9178 78.3573 35.3735 76.1188 35.3735C75.348 35.3998 74.5775 35.313 73.8321 35.116V39.4352C74.6968 39.7081 75.5977 39.8515 76.505 39.8605C80.7707 39.8605 82.7557 37.9795 84.6925 33.4446L94.5573 9.82969H89.296Z" fill="#77E0FF"/>
</svg>
